<?xml version="1.0" standalone="no"?>
<!DOCTYPE svg PUBLIC "-//W3C//DTD SVG 20010904//EN"
 "http://www.w3.org/TR/2001/REC-SVG-20010904/DTD/svg10.dtd">
<svg version="1.0" xmlns="http://www.w3.org/2000/svg"
 width="512.000000pt" height="512.000000pt" viewBox="0 0 512.000000 512.000000"
 preserveAspectRatio="xMidYMid meet">
<metadata>
Created by potrace 1.14, written by Peter Selinger 2001-2017
</metadata>
<g transform="translate(0.000000,512.000000) scale(0.100000,-0.100000)"
fill="#000000" stroke="none">
<path d="M2395 5104 c-48 -25 -74 -55 -86 -98 -15 -54 -6 -100 27 -143 40 -53
75 -63 214 -63 66 0 120 -3 120 -6 0 -4 -89 -94 -94 -94 -1 0 -53 -50 -116
-112 -139 -134 -331 -319 -386 -370 l-39 -37 -169 85 c-181 93 -213 101 -279
69 -40 -19 -1293 -1279 -1320 -1328 -49 -87 17 -210 120 -224 70 -9 103 10
223 130 954 959 1083 1087 1094 1079 34 -28 316 -162 347 -166 53 -6 104 22
185 100 40 38 170 164 290 279 119 116 240 232 268 259 28 26 67 64 87 83 l36
34 0 -136 c0 -107 4 -144 18 -174 32 -72 117 -110 190 -85 45 15 90 57 103 94
5 14 10 182 10 372 0 316 -2 349 -19 387 -14 32 -29 46 -61 61 -40 18 -70 19
-388 20 -295 0 -349 -2 -375 -16z"/>
<path d="M3777 4539 c-86 -13 -169 -80 -210 -169 -9 -18 -13 -361 -17 -1264
l-5 -1239 -64 -18 c-36 -10 -101 -21 -145 -25 l-81 -6 -1 884 0 885 -28 56
c-29 60 -86 113 -146 138 -24 10 -77 14 -170 14 -118 0 -141 -3 -180 -22 -54
-26 -100 -72 -131 -133 l-24 -45 -1 -449 c-1 -426 -2 -449 -20 -460 -10 -6
-76 -42 -146 -79 -106 -56 -128 -65 -129 -50 0 10 -2 110 -3 223 -2 124 -7
216 -14 233 -30 72 -96 128 -172 144 -25 5 -104 9 -175 8 -106 -2 -139 -6
-175 -22 -57 -25 -97 -66 -123 -123 -20 -43 -21 -66 -23 -440 -1 -217 -2 -398
-3 -402 0 -3 -21 -16 -46 -28 -25 -12 -94 -48 -153 -80 -91 -49 -143 -68 -342
-125 -129 -37 -275 -77 -325 -90 -193 -51 -265 -85 -332 -158 -78 -85 -114
-185 -108 -301 2 -46 29 -168 74 -341 39 -148 101 -385 137 -525 37 -140 78
-279 92 -308 68 -141 213 -225 376 -218 67 3 505 98 601 130 150 51 254 189
263 346 2 44 -1 101 -8 130 -7 28 -11 53 -8 55 2 2 17 6 33 9 17 3 140 32 275
66 135 33 511 125 835 205 734 180 692 169 810 226 79 39 152 94 485 368 278
229 293 241 390 320 176 143 214 199 215 311 0 99 -11 132 -71 206 -66 81
-205 120 -305 86 -37 -12 -141 -73 -159 -92 -3 -3 -23 -17 -45 -31 l-41 -27
-3 1006 c-2 964 -3 1007 -22 1056 -23 62 -77 117 -141 146 -52 23 -201 32
-291 19z"/>
</g>
</svg>
